<?xml version="1.0" standalone="no"?>
<!DOCTYPE svg PUBLIC "-//W3C//DTD SVG 20010904//EN"
 "http://www.w3.org/TR/2001/REC-SVG-20010904/DTD/svg10.dtd">
<svg version="1.0" xmlns="http://www.w3.org/2000/svg"
 width="210" height="28" viewBox="0 0 210 28"
 preserveAspectRatio="xMidYMid meet"
 <mask id="mask0_0_383" style="mask-type:luminance" maskUnits="userSpaceOnUse" x="0" y="0" width="210" height="28">
<path d="M210 0H0V28H210V0Z" fill="white"/
<metadata>
Created by potrace 1.10, written by Peter Selinger 2001-2011
</metadata>
<g transform="translate(0.000000,300.000000) scale(0.100000,-0.100000)"
fill="#ffffff" stroke="none">
<path d="M680 1500 l0 -190 190 0 190 0 0 190 0 190 -190 0 -190 0 0 -190z
m350 0 l0 -160 -162 0 -163 0 0 160 0 160 163 0 162 0 0 -160z"/>
<path d="M760 1500 l0 -110 108 0 107 0 0 110 0 110 -107 0 -108 0 0 -110z
m158 61 c9 -5 12 -26 10 -67 l-3 -59 -60 0 -60 0 -3 59 c-4 68 3 76 63 76 22
0 46 -4 53 -9z"/>
<path d="M1527 1683 c-4 -3 -7 -21 -7 -39 0 -27 -3 -31 -20 -27 -26 7 -50 -13
-50 -41 0 -31 19 -46 57 -46 l33 0 0 80 c0 80 -1 86 -13 73z m-7 -108 c0 -29
-25 -39 -45 -19 -8 9 -15 17 -15 19 0 2 7 10 15 19 20 20 45 10 45 -19z"/>
<path d="M1210 1655 c-19 -22 -4 -45 40 -62 46 -18 52 -40 15 -49 -18 -4 -32
-1 -45 11 -17 15 -20 16 -20 3 0 -31 82 -40 99 -11 14 25 -3 50 -44 63 -37 12
-46 34 -19 44 8 3 24 1 34 -4 27 -14 34 -12 20 5 -16 19 -64 19 -80 0z"/>
<path d="M1710 1641 c0 -11 -8 -22 -17 -24 -17 -4 -17 -5 0 -6 13 -1 17 -10
17 -41 0 -23 5 -40 11 -40 8 0 10 12 6 35 -4 26 -2 37 11 45 16 9 16 9 0 10
-11 0 -15 5 -12 14 3 8 1 17 -5 21 -7 3 -11 -2 -11 -14z"/>
<path d="M1329 1599 c-8 -16 -8 -28 0 -45 9 -20 17 -24 51 -22 l40 1 0 42 c0
42 0 42 -40 43 -31 1 -42 -3 -51 -19z m65 -12 c16 -25 -16 -56 -38 -37 -19 15
-20 32 -4 48 15 15 28 11 42 -11z"/>
<path d="M1582 1608 c-15 -15 -15 -51 0 -66 7 -7 27 -12 45 -12 32 0 33 1 33
43 0 41 -1 43 -33 45 -18 1 -38 -3 -45 -10z m62 -23 c7 -19 -21 -46 -39 -39
-18 7 -20 51 -2 57 17 6 34 -2 41 -18z"/>
<path d="M1772 1578 c3 -42 4 -43 41 -46 l37 -3 0 45 c0 25 -4 46 -10 46 -5 0
-10 -15 -10 -34 0 -20 -6 -36 -14 -39 -20 -8 -26 2 -26 40 0 18 -5 33 -11 33
-6 0 -9 -17 -7 -42z"/>
<path d="M1870 1610 c0 -6 11 -8 25 -4 32 8 31 1 -1 -42 l-26 -34 46 0 c26 0
45 4 42 9 -3 4 -17 6 -32 3 -23 -4 -25 -3 -16 15 6 11 18 25 26 33 26 21 18
30 -24 30 -22 0 -40 -5 -40 -10z"/>
<path d="M1970 1610 c0 -6 11 -8 25 -4 28 7 33 -7 9 -26 -8 -8 -20 -22 -25
-32 -9 -16 -5 -18 36 -18 26 0 44 4 41 9 -3 4 -17 6 -31 3 -28 -5 -33 9 -9 28
8 8 20 22 25 32 9 16 5 18 -31 18 -22 0 -40 -5 -40 -10z"/>
<path d="M2079 1599 c-8 -16 -8 -28 0 -45 9 -20 17 -24 51 -22 l40 1 0 42 c0
42 0 42 -40 43 -31 1 -42 -3 -51 -19z m65 -12 c16 -25 -16 -56 -38 -37 -19 15
-20 32 -4 48 15 15 28 11 42 -11z"/>
<path d="M2200 1575 c0 -54 18 -60 22 -7 2 25 8 37 18 37 10 0 16 -12 18 -37
4 -49 20 -49 24 -1 4 52 28 56 28 4 0 -23 5 -41 11 -41 6 0 9 17 7 43 l-3 42
-62 2 -63 3 0 -45z"/>
<path d="M2364 1596 c-11 -46 3 -66 47 -66 l39 0 0 43 0 44 -40 1 c-34 2 -40
-1 -46 -22z m66 -21 c0 -27 -17 -36 -42 -23 -23 11 -23 34 -1 46 24 14 43 4
43 -23z"/>
<path d="M2480 1574 c0 -24 5 -44 10 -44 6 0 10 13 10 29 0 35 21 56 38 39 7
-7 12 -25 12 -40 0 -15 4 -28 8 -28 5 0 6 19 3 43 -6 41 -7 42 -43 44 l-38 1
0 -44z"/>
<path d="M1216 1467 c-27 -20 -12 -56 25 -64 32 -6 54 -27 44 -43 -8 -14 -48
-13 -63 2 -6 6 -15 8 -19 4 -10 -10 25 -36 49 -36 10 0 27 9 38 20 26 26 15
50 -32 66 -46 15 -44 39 5 38 30 -1 35 1 26 12 -15 18 -50 18 -73 1z"/>
<path d="M1830 1451 c0 -13 -7 -21 -17 -21 -17 -1 -17 -1 0 -14 11 -8 17 -27
17 -50 0 -25 4 -35 11 -30 7 4 9 21 6 40 -4 25 -2 34 9 34 8 0 14 5 14 10 0 6
-7 10 -15 10 -8 0 -12 6 -9 14 3 8 1 17 -5 21 -7 3 -11 -2 -11 -14z"/>
<path d="M1335 1414 c-8 -9 -15 -22 -15 -30 0 -21 40 -56 57 -50 8 3 21 6 29
6 10 0 14 13 14 43 0 43 -1 44 -35 45 -19 1 -41 -5 -50 -14z m63 -30 c4 -27
-26 -40 -46 -20 -21 20 -8 48 20 44 14 -2 24 -11 26 -24z"/>
<path d="M1462 1418 c-18 -18 -14 -66 6 -77 9 -5 30 -7 45 -4 24 5 27 9 27 48
0 40 -1 42 -33 43 -19 1 -39 -4 -45 -10z m56 -36 c4 -29 -26 -42 -44 -18 -17
24 -6 48 20 44 13 -2 22 -12 24 -26z"/>
<path d="M1582 1418 c-33 -33 9 -99 50 -77 21 11 26 -9 6 -29 -16 -16 -23 -15
-43 4 -9 9 -19 13 -23 9 -12 -11 37 -45 56 -38 26 10 32 24 32 83 l0 56 -33 2
c-18 1 -38 -3 -45 -10z m62 -24 c7 -19 -10 -44 -31 -44 -17 0 -27 24 -19 45 7
20 42 19 50 -1z"/>
<path d="M1700 1410 c-25 -47 22 -94 66 -65 26 17 30 35 14 66 -15 26 -66 26
-80 -1z m67 -16 c3 -8 -2 -23 -11 -32 -15 -15 -17 -15 -32 0 -21 21 -11 48 16
48 11 0 23 -7 27 -16z"/>
<path d="M1896 1414 c-21 -21 -20 -40 4 -64 24 -24 29 -24 58 -4 24 17 29 53
10 72 -17 17 -54 15 -72 -4z m61 -20 c3 -8 -2 -23 -11 -32 -15 -15 -17 -15
-32 0 -21 21 -11 48 16 48 11 0 23 -7 27 -16z"/>
</g>
</svg>
